<svg xmlns="http://www.w3.org/2000/svg" xmlns:xlink="http://www.w3.org/1999/xlink" viewBox="0,0,256,256" width="48px" height="48px" fill-rule="nonzero"><g fill="#ffffff" fill-rule="nonzero" stroke="none" stroke-width="1" stroke-linecap="butt" stroke-linejoin="miter" stroke-miterlimit="10" stroke-dasharray="" stroke-dashoffset="0" font-family="none" font-weight="none" font-size="none" text-anchor="none" style="mix-blend-mode: normal"><g transform="scale(4,4)"><path d="M23.77344,12c-10.918,0 -11.77344,0.85444 -11.77344,11.77344v16.45312c0,10.918 0.85544,11.77344 11.77344,11.77344h16.45312c10.918,0 11.77344,-0.85444 11.77344,-11.77344v-16.45312c0,-10.919 -0.85444,-11.77344 -11.77344,-11.77344zM21.16797,16h21.66406c4.793,0 5.16797,0.37497 5.16797,5.16797v21.66406c0,4.793 -0.37597,5.16797 -5.16797,5.16797h-21.66406c-4.793,0 -5.16797,-0.37597 -5.16797,-5.16797v-21.66406c0,-4.793 0.37497,-5.16797 5.16797,-5.16797zM19.86719,22.42188v0.4375l1.60937,2.19531c0.08,0.096 0.12305,0.2168 0.12305,0.3418v13.26367c0,0.194 -0.0665,0.38416 -0.1875,0.53516l-2.41211,3.01758v0.39844h6.93359v-0.39844l-2.41406,-3.03516c-0.12,-0.15 -0.1875,-0.33925 -0.1875,-0.53125v-11.50586l7.19727,15.4707h1.33789l0.00586,-0.01758l6.19336,-15.89062v13.05469c0,0.141 -0.0543,0.27695 -0.1543,0.37695l-2.44531,2.07813v0.39844h9.5332v-0.39844l-1.57812,-2.07812c-0.1,-0.1 -0.1543,-0.235 -0.1543,-0.375v-14.5957c0,-0.141 0.0543,-0.275 0.1543,-0.375l1.57813,-1.92969v-0.4375h-7.12891l-5.00781,12.85352l-5.97852,-12.85352z"></path></g></g></svg>